<svg width="25" height="24" viewBox="0 0 25 24" fill="none" xmlns="http://www.w3.org/2000/svg">
<path d="M20.9246 12.7026H20.0055C19.6824 12.7018 19.3693 12.5895 19.1193 12.3847C18.8693 12.1799 18.6976 11.8951 18.6332 11.5784L18.154 9.16918C12.5564 9.16918 12.4999 6.3833 12.4999 6.3833C12.4999 6.3833 12.4414 9.16822 6.8457 9.16822L6.36653 11.5784C6.30192 11.8952 6.13003 12.18 5.87986 12.3848C5.62968 12.5896 5.31654 12.7018 4.99324 12.7026H4.07324" stroke="currentColor" stroke-width="1.5" stroke-linecap="round" stroke-linejoin="round"/>
<path d="M11.096 12.73C10.947 12.4973 10.7379 12.3092 10.4907 12.1855C10.2436 12.0619 9.96764 12.0073 9.69204 12.0276C9.41645 12.0073 9.14048 12.0619 8.89335 12.1855C8.64621 12.3092 8.43708 12.4973 8.28809 12.73" stroke="currentColor" stroke-width="1.5" stroke-linecap="round" stroke-linejoin="round"/>
<path d="M16.7166 12.7301C16.5676 12.4974 16.3585 12.3092 16.1113 12.1856C15.8642 12.0619 15.5882 12.0074 15.3126 12.0276C15.0369 12.0072 14.7607 12.0617 14.5134 12.1853C14.2661 12.309 14.0568 12.4972 13.9077 12.7301" stroke="currentColor" stroke-width="1.5" stroke-linecap="round" stroke-linejoin="round"/>
<path d="M20.9421 12.5864C21.6244 8.39368 21.5171 1.46973 12.5001 1.46973C3.48314 1.46973 3.37581 8.39464 4.05814 12.5864C3.55947 12.7954 3.14841 13.1704 2.89466 13.6478C2.64091 14.1253 2.5601 14.6758 2.66592 15.206C2.77174 15.7363 3.05769 16.2136 3.47527 16.5571C3.89285 16.9005 4.41637 17.089 4.95706 17.0906C5.05339 17.0869 5.14941 17.0773 5.24456 17.0618C5.42007 17.2553 5.53734 17.4945 5.58285 17.7518C6.19619 21.4567 10.3918 22.531 12.5001 22.531C14.6084 22.531 18.805 21.4567 19.425 17.7566C19.4716 17.4997 19.5887 17.2607 19.7633 17.0666C19.8559 17.0816 19.9494 17.0909 20.0431 17.0944C20.5838 17.0929 21.1074 16.9044 21.5249 16.5609C21.9425 16.2174 22.2285 15.7401 22.3343 15.2099C22.4401 14.6796 22.3593 14.1291 22.1055 13.6517C21.8518 13.1742 21.4407 12.7992 20.9421 12.5902V12.5864Z" stroke="currentColor" stroke-width="1.5" stroke-linecap="round" stroke-linejoin="round"/>
<path d="M19.2487 14.9028C14.8678 16.1812 10.2129 16.1812 5.83203 14.9028V18.6681C6.92836 21.6313 10.5834 22.5312 12.5001 22.5312C14.4637 22.5312 18.2415 21.5949 19.2487 18.4726V14.9028Z" stroke="currentColor" stroke-width="1.5" stroke-linecap="round" stroke-linejoin="round"/>
<path d="M5.83203 14.903L4.39453 12.9863" stroke="currentColor" stroke-width="1.5" stroke-linecap="round" stroke-linejoin="round"/>
<path d="M19.2485 14.903L20.686 12.9863" stroke="currentColor" stroke-width="1.5" stroke-linecap="round" stroke-linejoin="round"/>
</svg>
