<svg width="25" height="24" viewBox="0 0 25 24" fill="none" xmlns="http://www.w3.org/2000/svg">
<g clip-path="url(#clip0_1573_17876)">
<path d="M9.625 22.0623C10.4638 20.9499 10.9631 19.6187 11.0625 18.229" stroke="currentColor" stroke-width="2" stroke-linecap="round" stroke-linejoin="round"/>
<path d="M15.375 22.0623C14.5362 20.9499 14.0369 19.6187 13.9375 18.229" stroke="currentColor" stroke-width="2" stroke-linecap="round" stroke-linejoin="round"/>
<path d="M8.1875 22.0625H16.8125" stroke="currentColor" stroke-width="2" stroke-linecap="round" stroke-linejoin="round"/>
<path d="M1.479 15.354H23.5207" stroke="currentColor" stroke-width="2" stroke-linecap="round" stroke-linejoin="round"/>
<path d="M2.43734 1.9375H22.5623C22.5623 1.9375 23.5207 1.9375 23.5207 2.89583V17.2708C23.5207 17.2708 23.5207 18.2292 22.5623 18.2292H2.43734C2.43734 18.2292 1.479 18.2292 1.479 17.2708V2.89583C1.479 2.89583 1.479 1.9375 2.43734 1.9375Z" stroke="currentColor" stroke-width="2" stroke-linecap="round" stroke-linejoin="round"/>
<path d="M1.479 9.60416H7.3833C7.47915 9.60433 7.57286 9.57575 7.6523 9.5221C7.73174 9.46846 7.79326 9.39222 7.82892 9.30325L8.15667 8.48195C8.19362 8.38971 8.25832 8.31124 8.34184 8.25739C8.42535 8.20355 8.52354 8.177 8.62281 8.18142C8.72207 8.18584 8.81751 8.22101 8.89591 8.28207C8.97431 8.34312 9.03178 8.42704 9.06038 8.5222L9.64017 10.4552C9.66947 10.5543 9.73005 10.6413 9.81287 10.7032C9.89569 10.7651 9.9963 10.7985 10.0997 10.7985C10.2031 10.7985 10.3037 10.7651 10.3865 10.7032C10.4693 10.6413 10.5299 10.5543 10.5592 10.4552L11.9517 5.72195C11.9819 5.61917 12.0457 5.52947 12.1329 5.46719C12.22 5.40492 12.3256 5.37366 12.4326 5.3784C12.5396 5.38314 12.642 5.42362 12.7233 5.49337C12.8046 5.56311 12.8603 5.6581 12.8813 5.76316L14.0456 11.5841C14.0666 11.6886 14.1218 11.7831 14.2025 11.8526C14.2832 11.9222 14.3848 11.9629 14.4912 11.9683C14.5976 11.9737 14.7028 11.9435 14.7901 11.8824C14.8774 11.8213 14.9419 11.7329 14.9733 11.631L15.9316 8.50783C15.9608 8.41312 16.0185 8.32978 16.097 8.26927C16.1755 8.20876 16.2708 8.17407 16.3698 8.16997C16.4688 8.16587 16.5666 8.19257 16.6498 8.24638C16.733 8.30019 16.7975 8.37848 16.8344 8.47045L17.1679 9.30612C17.2035 9.3951 17.2651 9.47133 17.3445 9.52498C17.4239 9.57862 17.5176 9.60721 17.6135 9.60704H23.5207" stroke="currentColor" stroke-width="2" stroke-linecap="round" stroke-linejoin="round"/>
</g>
<defs>
<clipPath id="clip0_1573_17876">
<rect width="24" height="24" fill="white" transform="translate(0.5)"/>
</clipPath>
</defs>
</svg>
