<svg width="16" height="16" viewBox="0 0 16 16" fill="none" xmlns="http://www.w3.org/2000/svg">
<path fill-rule="evenodd" clip-rule="evenodd" d="M11.739 14.0004L10.0897 5.20703L2.66699 5.8817V11.867C2.66699 12.6137 2.66699 12.987 2.81233 13.2724C2.94015 13.5232 3.14412 13.7272 3.39499 13.855C3.68033 14.0004 4.05366 14.0004 4.80033 14.0004H11.739ZM9.00033 10.0204C9.00033 11.459 7.57366 12.4697 6.95166 12.8424C6.86567 12.894 6.76727 12.9212 6.66699 12.9212C6.56671 12.9212 6.46832 12.894 6.38233 12.8424C5.76033 12.4697 4.33366 11.459 4.33366 10.0197C4.33366 8.60836 5.46433 7.66703 6.66699 7.66703C7.91166 7.66703 9.00033 8.60836 9.00033 10.0204Z" fill="#004E80"/>
<path d="M2.81233 2.728C2.66699 3.01333 2.66699 3.38667 2.66699 4.13333V4.54267L14.6603 3.452C14.6477 3.12667 14.6137 2.90933 14.5217 2.728C14.3938 2.47713 14.1899 2.27316 13.939 2.14533C13.6537 2 13.2803 2 12.5337 2H4.80033C4.05366 2 3.68033 2 3.39499 2.14533C3.14412 2.27316 2.94015 2.47713 2.81233 2.728ZM14.667 4.79067L11.4237 5.08533L13.0943 13.9967C13.489 13.988 13.7363 13.958 13.939 13.8547C14.1899 13.7268 14.3938 13.5229 14.5217 13.272C14.667 12.9867 14.667 12.6133 14.667 11.8667V4.79067Z" fill="#00ACE3"/>
<path d="M6.66667 10.6663C7.03486 10.6663 7.33333 10.3679 7.33333 9.99967C7.33333 9.63148 7.03486 9.33301 6.66667 9.33301C6.29848 9.33301 6 9.63148 6 9.99967C6 10.3679 6.29848 10.6663 6.66667 10.6663Z" fill="black"/>
</svg>
