<svg width="19" height="20" viewBox="0 0 19 20" fill="none" xmlns="http://www.w3.org/2000/svg">
<path d="M12.5 2.6C12.5 2.03995 12.5 1.75992 12.391 1.54601C12.2951 1.35785 12.1422 1.20487 11.954 1.10899C11.7401 1 11.4601 1 10.9 1H8.1C7.53995 1 7.25992 1 7.04601 1.10899C6.85785 1.20487 6.70487 1.35785 6.60899 1.54601C6.5 1.75992 6.5 2.03995 6.5 2.6V5.4C6.5 5.96005 6.5 6.24008 6.39101 6.45399C6.29513 6.64215 6.14215 6.79513 5.95399 6.89101C5.74008 7 5.46005 7 4.9 7H2.1C1.53995 7 1.25992 7 1.04601 7.10899C0.857847 7.20487 0.704867 7.35785 0.608993 7.54601C0.5 7.75992 0.5 8.03995 0.5 8.6V11.4C0.5 11.9601 0.5 12.2401 0.608993 12.454C0.704867 12.6422 0.857847 12.7951 1.04601 12.891C1.25992 13 1.53995 13 2.1 13H4.9C5.46005 13 5.74008 13 5.95399 13.109C6.14215 13.2049 6.29513 13.3578 6.39101 13.546C6.5 13.7599 6.5 14.0399 6.5 14.6V17.4C6.5 17.9601 6.5 18.2401 6.60899 18.454C6.70487 18.6422 6.85785 18.7951 7.04601 18.891C7.25992 19 7.53995 19 8.1 19H10.9C11.4601 19 11.7401 19 11.954 18.891C12.1422 18.7951 12.2951 18.6422 12.391 18.454C12.5 18.2401 12.5 17.9601 12.5 17.4V14.6C12.5 14.0399 12.5 13.7599 12.609 13.546C12.7049 13.3578 12.8578 13.2049 13.046 13.109C13.2599 13 13.5399 13 14.1 13H16.9C17.4601 13 17.7401 13 17.954 12.891C18.1422 12.7951 18.2951 12.6422 18.391 12.454C18.5 12.2401 18.5 11.9601 18.5 11.4V8.6C18.5 8.03995 18.5 7.75992 18.391 7.54601C18.2951 7.35785 18.1422 7.20487 17.954 7.10899C17.7401 7 17.4601 7 16.9 7L14.1 7C13.5399 7 13.2599 7 13.046 6.89101C12.8578 6.79513 12.7049 6.64215 12.609 6.45399C12.5 6.24008 12.5 5.96005 12.5 5.4V2.6Z" stroke="currentColor" stroke-linecap="round" stroke-linejoin="round"/>
</svg>
