<svg width="19" height="21" viewBox="0 0 19 21" fill="none" xmlns="http://www.w3.org/2000/svg">
<path d="M10.4823 1.76424C10.131 1.49099 9.95532 1.35436 9.76135 1.30184C9.5902 1.2555 9.4098 1.2555 9.23865 1.30184C9.04468 1.35436 8.86902 1.49099 8.5177 1.76424L1.73539 7.03937C1.28202 7.39199 1.05534 7.5683 0.892027 7.7891C0.747366 7.98469 0.639601 8.20503 0.574027 8.4393C0.5 8.70376 0.5 8.99094 0.5 9.5653V16.8002C0.5 17.9203 0.5 18.4804 0.717987 18.9082C0.909734 19.2845 1.21569 19.5905 1.59202 19.7822C2.01984 20.0002 2.5799 20.0002 3.7 20.0002H5.7C5.98003 20.0002 6.12004 20.0002 6.227 19.9457C6.32108 19.8978 6.39757 19.8213 6.4455 19.7272C6.5 19.6203 6.5 19.4803 6.5 19.2002V12.6002C6.5 12.0402 6.5 11.7601 6.60899 11.5462C6.70487 11.3581 6.85785 11.2051 7.04601 11.1092C7.25992 11.0002 7.53995 11.0002 8.1 11.0002H10.9C11.4601 11.0002 11.7401 11.0002 11.954 11.1092C12.1422 11.2051 12.2951 11.3581 12.391 11.5462C12.5 11.7601 12.5 12.0402 12.5 12.6002V19.2002C12.5 19.4803 12.5 19.6203 12.5545 19.7272C12.6024 19.8213 12.6789 19.8978 12.773 19.9457C12.88 20.0002 13.02 20.0002 13.3 20.0002H15.3C16.4201 20.0002 16.9802 20.0002 17.408 19.7822C17.7843 19.5905 18.0903 19.2845 18.282 18.9082C18.5 18.4804 18.5 17.9203 18.5 16.8002V9.5653C18.5 8.99094 18.5 8.70376 18.426 8.4393C18.3604 8.20503 18.2526 7.98469 18.108 7.7891C17.9447 7.5683 17.718 7.39199 17.2646 7.03937L10.4823 1.76424Z" fill="currentColor" stroke="currentColor" stroke-linecap="round" stroke-linejoin="round"/>
</svg>
