<svg width="24" height="24" viewBox="0 0 24 24" fill="none" xmlns="http://www.w3.org/2000/svg">
<path d="M4.44727 3.38281H10.8564" stroke="currentColor" stroke-linecap="round" stroke-linejoin="round"/>
<path d="M13.1436 3.38281H19.5527" stroke="currentColor" stroke-linecap="round" stroke-linejoin="round"/>
<path d="M9.59969 3.38281V15.1325C9.59969 15.6491 9.39448 16.1445 9.02919 16.5098C8.66391 16.8751 8.16848 17.0803 7.6519 17.0803C7.13531 17.0803 6.63988 16.8751 6.2746 16.5098C5.90932 16.1445 5.7041 15.6491 5.7041 15.1325V3.38281" stroke="currentColor" stroke-linecap="round" stroke-linejoin="round"/>
<path d="M18.296 3.38281V15.1325C18.296 15.6491 18.0908 16.1445 17.7255 16.5098C17.3602 16.8751 16.8648 17.0803 16.3482 17.0803C15.8316 17.0803 15.3362 16.8751 14.9709 16.5098C14.6056 16.1445 14.4004 15.6491 14.4004 15.1325V3.38281" stroke="currentColor" stroke-linecap="round" stroke-linejoin="round"/>
<path d="M20.9767 6.63428H21.9328V20.5861H2.06738V6.63428H3.27132" stroke="currentColor" stroke-linecap="round" stroke-linejoin="round"/>
<path d="M0.924805 20.5854H23.0752" stroke="currentColor" stroke-linecap="round" stroke-linejoin="round"/>
<path d="M5.79443 10.0984C7.55732 9.82289 8.15543 10.5462 9.44629 10.5003" stroke="currentColor" stroke-linecap="round" stroke-linejoin="round"/>
<path d="M14.644 12.9182C16.4069 12.6128 17.005 13.4143 18.2959 13.3634" stroke="currentColor" stroke-linecap="round" stroke-linejoin="round"/>
</svg>
