<svg width="14" height="18" viewBox="0 0 14 18" fill="none" xmlns="http://www.w3.org/2000/svg">
<path d="M7 17.125C7.4675 17.125 9.295 15.79 10.7513 14.1338C12.6925 11.9275 13.875 9.465 13.875 7.125C13.875 3.42125 10.8313 0.875 7 0.875C3.16875 0.875 0.125 3.42125 0.125 7.125C0.125 9.475 1.3075 11.9375 3.24875 14.1412C4.70375 15.7937 6.53125 17.125 7 17.125ZM7 8.625C7.33152 8.625 7.64946 8.4933 7.88388 8.25888C8.1183 8.02446 8.25 7.70652 8.25 7.375C8.25 7.04348 8.1183 6.72554 7.88388 6.49112C7.64946 6.2567 7.33152 6.125 7 6.125C6.66848 6.125 6.35054 6.2567 6.11612 6.49112C5.8817 6.72554 5.75 7.04348 5.75 7.375C5.75 7.70652 5.8817 8.02446 6.11612 8.25888C6.35054 8.4933 6.66848 8.625 7 8.625ZM7 11.375C5.93913 11.375 4.92172 10.9536 4.17157 10.2034C3.42143 9.45328 3 8.43587 3 7.375C3 6.31413 3.42143 5.29672 4.17157 4.54657C4.92172 3.79643 5.93913 3.375 7 3.375C8.06087 3.375 9.07828 3.79643 9.82843 4.54657C10.5786 5.29672 11 6.31413 11 7.375C11 8.43587 10.5786 9.45328 9.82843 10.2034C9.07828 10.9536 8.06087 11.375 7 11.375Z" fill="#004E80"/>
</svg>
