<svg width="45" height="44" viewBox="0 0 45 44" fill="none" xmlns="http://www.w3.org/2000/svg">
<rect x="0.5" width="44" height="44" rx="22" fill="url(#paint0_linear_1573_15198)"/>
<path d="M30.9246 22.7026H30.0055C29.6824 22.7018 29.3693 22.5895 29.1193 22.3847C28.8693 22.1799 28.6976 21.8951 28.6332 21.5784L28.154 19.1692C22.5564 19.1692 22.4999 16.3833 22.4999 16.3833C22.4999 16.3833 22.4414 19.1682 16.8457 19.1682L16.3665 21.5784C16.3019 21.8952 16.13 22.18 15.8799 22.3848C15.6297 22.5896 15.3165 22.7018 14.9932 22.7026H14.0732" stroke="#FEFEFE" stroke-linecap="round" stroke-linejoin="round"/>
<path d="M21.096 22.73C20.947 22.4973 20.7379 22.3092 20.4907 22.1855C20.2436 22.0619 19.9676 22.0073 19.692 22.0276C19.4164 22.0073 19.1405 22.0619 18.8933 22.1855C18.6462 22.3092 18.4371 22.4973 18.2881 22.73" stroke="#FEFEFE" stroke-linecap="round" stroke-linejoin="round"/>
<path d="M26.7166 22.7301C26.5676 22.4974 26.3585 22.3092 26.1113 22.1856C25.8642 22.0619 25.5882 22.0074 25.3126 22.0276C25.0369 22.0072 24.7607 22.0617 24.5134 22.1853C24.2661 22.309 24.0568 22.4972 23.9077 22.7301" stroke="#FEFEFE" stroke-linecap="round" stroke-linejoin="round"/>
<path d="M30.9421 22.5864C31.6244 18.3937 31.5171 11.4697 22.5001 11.4697C13.4831 11.4697 13.3758 18.3946 14.0581 22.5864C13.5595 22.7954 13.1484 23.1704 12.8947 23.6478C12.6409 24.1253 12.5601 24.6758 12.6659 25.206C12.7717 25.7363 13.0577 26.2136 13.4753 26.5571C13.8929 26.9005 14.4164 27.089 14.9571 27.0906C15.0534 27.0869 15.1494 27.0773 15.2446 27.0618C15.4201 27.2553 15.5373 27.4945 15.5829 27.7518C16.1962 31.4567 20.3918 32.531 22.5001 32.531C24.6084 32.531 28.805 31.4567 29.425 27.7566C29.4716 27.4997 29.5887 27.2607 29.7633 27.0666C29.8559 27.0816 29.9494 27.0909 30.0431 27.0944C30.5838 27.0929 31.1074 26.9044 31.5249 26.5609C31.9425 26.2174 32.2285 25.7401 32.3343 25.2099C32.4401 24.6796 32.3593 24.1291 32.1055 23.6517C31.8518 23.1742 31.4407 22.7992 30.9421 22.5902V22.5864Z" stroke="#FEFEFE" stroke-linecap="round" stroke-linejoin="round"/>
<path d="M29.2487 24.9028C24.8678 26.1812 20.2129 26.1812 15.832 24.9028V28.6681C16.9284 31.6313 20.5834 32.5312 22.5001 32.5312C24.4637 32.5312 28.2415 31.5949 29.2487 28.4726V24.9028Z" stroke="#FEFEFE" stroke-linecap="round" stroke-linejoin="round"/>
<path d="M15.832 24.903L14.3945 22.9863" stroke="#FEFEFE" stroke-linecap="round" stroke-linejoin="round"/>
<path d="M29.2485 24.903L30.686 22.9863" stroke="#FEFEFE" stroke-linecap="round" stroke-linejoin="round"/>
<defs>
<linearGradient id="paint0_linear_1573_15198" x1="2.16067e-07" y1="-2.30968e-07" x2="44" y2="44" gradientUnits="userSpaceOnUse">
<stop stop-color="#78C8F5" stop-opacity="0.5"/>
<stop offset="1" stop-color="#78C8F5"/>
</linearGradient>
</defs>
</svg>
