<svg width="44" height="44" viewBox="0 0 44 44" fill="none" xmlns="http://www.w3.org/2000/svg">
<rect width="44" height="44" rx="22" fill="url(#paint0_linear_1573_15223)"/>
<path d="M19.125 32.0623C19.9638 30.9499 20.4631 29.6187 20.5625 28.229" stroke="white" stroke-width="1.22222" stroke-linecap="round" stroke-linejoin="round"/>
<path d="M24.875 32.0623C24.0362 30.9499 23.5369 29.6187 23.4375 28.229" stroke="white" stroke-width="1.22222" stroke-linecap="round" stroke-linejoin="round"/>
<path d="M17.6875 32.0625H26.3125" stroke="white" stroke-width="1.22222" stroke-linecap="round" stroke-linejoin="round"/>
<path d="M10.979 25.354H33.0207" stroke="white" stroke-width="1.22222" stroke-linecap="round" stroke-linejoin="round"/>
<path d="M11.9373 11.9375H32.0623C32.0623 11.9375 33.0207 11.9375 33.0207 12.8958V27.2708C33.0207 27.2708 33.0207 28.2292 32.0623 28.2292H11.9373C11.9373 28.2292 10.979 28.2292 10.979 27.2708V12.8958C10.979 12.8958 10.979 11.9375 11.9373 11.9375Z" stroke="white" stroke-width="1.22222" stroke-linecap="round" stroke-linejoin="round"/>
<path d="M10.979 19.6042H16.8833C16.9792 19.6043 17.0729 19.5757 17.1523 19.5221C17.2317 19.4685 17.2933 19.3922 17.3289 19.3032L17.6567 18.482C17.6936 18.3897 17.7583 18.3112 17.8418 18.2574C17.9254 18.2035 18.0235 18.177 18.1228 18.1814C18.2221 18.1858 18.3175 18.221 18.3959 18.2821C18.4743 18.3431 18.5318 18.427 18.5604 18.5222L19.1402 20.4552C19.1695 20.5543 19.2301 20.6413 19.3129 20.7032C19.3957 20.7651 19.4963 20.7985 19.5997 20.7985C19.7031 20.7985 19.8037 20.7651 19.8865 20.7032C19.9693 20.6413 20.0299 20.5543 20.0592 20.4552L21.4517 15.722C21.4819 15.6192 21.5457 15.5295 21.6329 15.4672C21.72 15.4049 21.8256 15.3737 21.9326 15.3784C22.0396 15.3831 22.142 15.4236 22.2233 15.4934C22.3046 15.5631 22.3602 15.6581 22.3813 15.7632L23.5456 21.5841C23.5666 21.6886 23.6218 21.7831 23.7025 21.8526C23.7832 21.9222 23.8848 21.9629 23.9912 21.9683C24.0976 21.9737 24.2028 21.9435 24.2901 21.8824C24.3774 21.8213 24.4419 21.7329 24.4733 21.631L25.4316 18.5078C25.4608 18.4131 25.5185 18.3298 25.597 18.2693C25.6755 18.2088 25.7708 18.1741 25.8698 18.17C25.9688 18.1659 26.0666 18.1926 26.1498 18.2464C26.233 18.3002 26.2975 18.3785 26.3344 18.4705L26.6679 19.3061C26.7035 19.3951 26.7651 19.4713 26.8445 19.525C26.9239 19.5786 27.0176 19.6072 27.1135 19.607H33.0207" stroke="white" stroke-width="1.22222" stroke-linecap="round" stroke-linejoin="round"/>
<defs>
<linearGradient id="paint0_linear_1573_15223" x1="0" y1="0" x2="44" y2="44" gradientUnits="userSpaceOnUse">
<stop stop-color="#B784EB" stop-opacity="0.5"/>
<stop offset="1" stop-color="#B784EB"/>
</linearGradient>
</defs>
</svg>
