<svg width="25" height="24" viewBox="0 0 25 24" fill="none" xmlns="http://www.w3.org/2000/svg">
<path d="M12.5 15C14.1569 15 15.5 13.6569 15.5 12C15.5 10.3431 14.1569 9 12.5 9C10.8431 9 9.5 10.3431 9.5 12C9.5 13.6569 10.8431 15 12.5 15Z" stroke="currentColor" stroke-linecap="round" stroke-linejoin="round"/>
<path d="M10.5 4C10.5 2.89543 11.3954 2 12.5 2C13.6045 2 14.5 2.89543 14.5 4C14.5 4.14835 14.6006 4.2772 14.743 4.31872C15.3046 4.48244 15.8406 4.70606 16.3438 4.98222C16.4742 5.05382 16.637 5.03381 16.7422 4.92858C17.5233 4.14753 18.79 4.14789 19.571 4.92894C20.3521 5.70999 20.3524 6.97667 19.5714 7.75772C19.4661 7.86294 19.4461 8.02571 19.5177 8.15615C19.7939 8.65929 20.0175 9.19535 20.1813 9.75695C20.2228 9.89937 20.3516 10 20.5 10C21.6045 10 22.5 10.8954 22.5 12C22.5 13.1046 21.6045 14 20.5 14C20.3516 14 20.2228 14.1006 20.1813 14.2431C20.0182 14.8023 19.7958 15.3362 19.5212 15.8375C19.4493 15.9688 19.4695 16.1325 19.5753 16.2383C20.3564 17.0194 20.352 18.2901 19.5709 19.0711C18.7899 19.8522 17.5191 19.8566 16.7381 19.0756C16.6322 18.9697 16.4685 18.9495 16.3371 19.0214C15.8359 19.2959 15.3021 19.5183 14.743 19.6813C14.6006 19.7228 14.5 19.8517 14.5 20C14.5 21.1046 13.6045 22 12.5 22C11.3954 22 10.5 21.1046 10.5 20C10.5 19.8517 10.3994 19.7228 10.257 19.6813C9.69537 19.5176 9.15933 19.2939 8.65621 19.0178C8.52573 18.9462 8.36292 18.9662 8.25767 19.0714C7.47662 19.8525 6.20994 19.8521 5.42889 19.0711C4.64784 18.29 4.64749 17.0233 5.42854 16.2423C5.53379 16.137 5.55381 15.9742 5.48219 15.8437C5.20604 15.3406 4.98243 14.8046 4.81872 14.2431C4.7772 14.1006 4.64834 14 4.5 14C3.39543 14 2.5 13.1046 2.5 12C2.5 10.8954 3.39543 10 4.5 10C4.64834 10 4.7772 9.89936 4.81872 9.75695C4.98171 9.19786 5.20408 8.66407 5.47856 8.16289C5.55049 8.03154 5.53029 7.86775 5.42439 7.76185C4.64335 6.9808 4.64775 5.71006 5.4288 4.92901C6.20985 4.14797 7.48059 4.14356 8.26164 4.92461C8.3675 5.03047 8.53124 5.05066 8.66255 4.97874C9.16384 4.70418 9.69773 4.48175 10.257 4.31872C10.3994 4.2772 10.5 4.14835 10.5 4Z" stroke="currentColor" stroke-linecap="round" stroke-linejoin="round"/>
</svg>
